<!DOCTYPE svg PUBLIC "-//W3C//DTD SVG 1.1//EN" "http://www.w3.org/Graphics/SVG/1.1/DTD/svg11.dtd">
<!-- Uploaded to: SVG Repo, www.svgrepo.com, Transformed by: SVG Repo Mixer Tools -->
<svg fill="#000000" height="124px" width="124px" version="1.1" id="Capa_1" xmlns="http://www.w3.org/2000/svg" xmlns:xlink="http://www.w3.org/1999/xlink" viewBox="0 0 60 60" xml:space="preserve">
<g id="SVGRepo_bgCarrier" stroke-width="0"/>
<g id="SVGRepo_tracerCarrier" stroke-linecap="round" stroke-linejoin="round"/>
<g id="SVGRepo_iconCarrier"> <g> <g> <path d="M13,25.101V25h1h2h9h2h6v-9h-6h-2h-9h-2C6.28,16,0,22.28,0,30s6.28,14,14,14v-9c-2.757,0-5-2.243-5-5 C9,27.586,10.721,25.566,13,25.101z"/> <path d="M30,9c2.757,0,5,2.243,5,5v1v1v9v4v4h9v-4v-4v-9v-1v-1c0-7.72-6.28-14-14-14S16,6.28,16,14h9C25,11.243,27.243,9,30,9z"/> <path d="M46,16v9c2.757,0,5,2.243,5,5s-2.243,5-5,5h-2h-9h-3h-5v9h6h2h9h2c7.72,0,14-6.28,14-14S53.72,16,46,16z"/> <path d="M30,51c-2.757,0-5-2.243-5-5v-1v-1v-9v-4v-4h-9v4v4v9v1v1c0,7.72,6.28,14,14,14s14-6.28,14-14h-9 C35,48.757,32.757,51,30,51z"/> </g> </g> </g>
</svg>